<svg width="34" height="35" viewBox="0 0 34 35" fill="none" xmlns="http://www.w3.org/2000/svg">
<circle cx="17" cy="17.0356" r="16.5278" fill="white" stroke="#C5A46D" stroke-width="0.944444"/>
<path d="M11.3334 26.4802H22.6668C24.7503 26.4802 26.4445 24.7855 26.4445 22.7024V13.258C26.4445 11.1749 24.7503 9.4802 22.6668 9.4802H21.7223V8.53575C21.7223 8.01423 21.2999 7.59131 20.7779 7.59131C20.2559 7.59131 19.8334 8.01423 19.8334 8.53575V9.4802H14.1668V8.53575C14.1668 8.01423 13.7439 7.59131 13.2223 7.59131C12.7008 7.59131 12.2779 8.01423 12.2779 8.53575V9.4802H11.3334C9.25037 9.4802 7.55566 11.1749 7.55566 13.258V22.7024C7.55566 24.7855 9.25037 26.4802 11.3334 26.4802ZM9.44455 16.0913H24.5557V22.7024C24.5557 23.7441 23.708 24.5913 22.6668 24.5913H11.3334C10.2917 24.5913 9.44455 23.7441 9.44455 22.7024V16.0913Z" fill="#C5A46D"/>
</svg>
