<svg width="34" height="35" viewBox="0 0 34 35" fill="none" xmlns="http://www.w3.org/2000/svg">
<circle cx="17" cy="17.0356" r="16.5278" fill="white" stroke="#C5A46D" stroke-width="0.944444"/>
<path d="M17.0001 7.59082C11.7841 7.59082 7.55566 11.8192 7.55566 17.0353C7.55566 22.2513 11.7841 26.4797 17.0001 26.4797C22.2161 26.4797 26.4445 22.2512 26.4445 17.0353C26.4445 11.8193 22.2161 7.59082 17.0001 7.59082ZM20.7779 17.9797H17.0001C16.4781 17.9797 16.0557 17.5573 16.0557 17.0353V11.3686C16.0557 10.8466 16.4781 10.4242 17.0001 10.4242C17.5221 10.4242 17.9445 10.8466 17.9445 11.3686V16.0908H20.7779C21.2999 16.0908 21.7223 16.5133 21.7223 17.0353C21.7223 17.5573 21.2999 17.9797 20.7779 17.9797Z" fill="#C5A46D"/>
</svg>
