<svg width="24" height="24" viewBox="0 0 24 24" fill="none" xmlns="http://www.w3.org/2000/svg">
<g clip-path="url(#clip0_51_345)">
<path d="M12.0403 8.37341C12.3707 8.37341 12.6382 8.10571 12.6382 7.77557C12.6382 7.44543 12.3707 7.17773 12.0403 7.17773C9.39904 7.17773 7.25781 9.31897 7.25781 11.9604C7.25781 14.6017 9.39904 16.743 12.0403 16.743C14.6818 16.743 16.823 14.6017 16.823 11.9604C16.823 11.6301 16.5553 11.3626 16.2252 11.3626C15.8951 11.3626 15.6274 11.6301 15.6274 11.9604C15.6274 13.9415 14.0215 15.5475 12.0403 15.5475C10.0593 15.5475 8.45331 13.9415 8.45331 11.9604C8.45331 9.97924 10.0593 8.37341 12.0403 8.37341Z" fill="#4A8F7D"/>
<path d="M23.4468 8.40912C23.343 8.09546 23.0046 7.92535 22.6908 8.02917C22.3842 8.13061 22.2136 8.45691 22.305 8.76654C24.0928 14.4598 20.9269 20.5245 15.2336 22.3123C9.54051 24.1001 3.47588 20.9342 1.68804 15.241C-0.0999815 9.54767 3.06609 3.48304 8.7592 1.6952C10.8667 1.03346 13.1263 1.03346 15.2336 1.6952C15.55 1.7906 15.8838 1.61152 15.9792 1.29511C16.0732 0.983468 15.9009 0.654062 15.5912 0.553354C9.26951 -1.43004 2.53673 2.08686 0.553338 8.40875C-1.43006 14.7305 2.08703 21.4632 8.40874 23.4466C14.7306 25.43 21.4632 21.9131 23.4466 15.5912C24.1801 13.2533 24.1801 10.747 23.4468 8.40912Z" fill="#4A8F7D"/>
<path d="M13.178 4.27063C13.1811 3.93024 12.9197 3.64569 12.5802 3.62024C12.4017 3.60504 12.2229 3.58984 12.0397 3.58984C7.41717 3.58984 3.66992 7.33709 3.66992 11.9596C3.66992 16.5819 7.41717 20.3291 12.0397 20.3291C16.662 20.3291 20.4092 16.5819 20.4092 11.9596C20.4092 11.7433 20.396 11.5273 20.3695 11.3127C20.3217 10.9845 20.017 10.7573 19.6889 10.8051C19.3608 10.8527 19.1335 11.1576 19.1811 11.4857C19.183 11.4982 19.1852 11.5104 19.1877 11.5229C19.2007 11.6677 19.2135 11.8113 19.2135 11.9592C19.2137 15.9214 16.0019 19.1333 12.0398 19.1336C8.07763 19.1338 4.86578 15.9218 4.8656 11.9598C4.86542 7.99774 8.07708 4.7857 12.0393 4.78552H12.0395C12.1878 4.78552 12.3315 4.79834 12.476 4.81116L12.5881 4.82049C12.9004 4.83386 13.1645 4.59143 13.1777 4.27905C13.1778 4.27612 13.1778 4.27338 13.178 4.27063Z" fill="#4A8F7D"/>
<path d="M15.6277 5.38391V7.5277L11.6181 11.5373C11.3806 11.7668 11.374 12.1452 11.6034 12.3827C11.8328 12.6202 12.2113 12.6268 12.4488 12.3974C12.4537 12.3926 12.4587 12.3877 12.4635 12.3827L16.4731 8.3731H18.6169C18.7755 8.3731 18.9274 8.31011 19.0397 8.19787L22.6265 4.61084C22.86 4.37738 22.86 3.9989 22.6265 3.76544C22.5145 3.65338 22.3625 3.59039 22.2039 3.59039H20.4104V1.79687C20.4104 1.46674 20.1427 1.19904 19.8124 1.19922C19.654 1.19922 19.502 1.26221 19.39 1.37427L15.8029 4.9613C15.6907 5.07336 15.6277 5.22534 15.6277 5.38391ZM16.8234 5.63146L19.2147 3.24011V4.18823C19.2147 4.51837 19.4824 4.78607 19.8126 4.78607H20.7607L18.3693 7.17742H16.8234V5.63146Z" fill="#4A8F7D"/>
</g>
<defs>
<clipPath id="clip0_51_345">
<rect width="24" height="24" fill="white"/>
</clipPath>
</defs>
</svg>
