<svg width="20" height="20" viewBox="0 0 20 20" fill="none" xmlns="http://www.w3.org/2000/svg">
<g clip-path="url(#clip0_424_4247)">
<path d="M17.9167 3.3335H16.1111V4.44461H17.7778V16.6668H2.22222V4.44461H3.88888V3.3335H2.08333C1.95346 3.33567 1.82529 3.3634 1.70614 3.41511C1.58699 3.46682 1.4792 3.5415 1.38892 3.63488C1.29863 3.72826 1.22763 3.83851 1.17996 3.95933C1.1323 4.08015 1.1089 4.20918 1.1111 4.33905V16.7724C1.1089 16.9023 1.1323 17.0313 1.17996 17.1521C1.22763 17.2729 1.29863 17.3832 1.38892 17.4766C1.4792 17.5699 1.58699 17.6446 1.70614 17.6963C1.82529 17.748 1.95346 17.7758 2.08333 17.7779H17.9167C18.0465 17.7758 18.1747 17.748 18.2938 17.6963C18.413 17.6446 18.5208 17.5699 18.6111 17.4766C18.7014 17.3832 18.7724 17.2729 18.82 17.1521C18.8677 17.0313 18.8911 16.9023 18.8889 16.7724V4.33905C18.8911 4.20918 18.8677 4.08015 18.82 3.95933C18.7724 3.83851 18.7014 3.72826 18.6111 3.63488C18.5208 3.5415 18.413 3.46682 18.2938 3.41511C18.1747 3.3634 18.0465 3.33567 17.9167 3.3335Z" fill="#263238"/>
<path d="M4.44446 7.77783H5.55557V8.88894H4.44446V7.77783Z" fill="#263238"/>
<path d="M7.77783 7.77783H8.88894V8.88894H7.77783V7.77783Z" fill="#263238"/>
<path d="M11.1111 7.77783H12.2222V8.88894H11.1111V7.77783Z" fill="#263238"/>
<path d="M14.4445 7.77783H15.5556V8.88894H14.4445V7.77783Z" fill="#263238"/>
<path d="M4.44446 10.5557H5.55557V11.6668H4.44446V10.5557Z" fill="#263238"/>
<path d="M7.77783 10.5557H8.88894V11.6668H7.77783V10.5557Z" fill="#263238"/>
<path d="M11.1111 10.5557H12.2222V11.6668H11.1111V10.5557Z" fill="#263238"/>
<path d="M14.4445 10.5557H15.5556V11.6668H14.4445V10.5557Z" fill="#263238"/>
<path d="M4.44446 13.3335H5.55557V14.4446H4.44446V13.3335Z" fill="#263238"/>
<path d="M7.77783 13.3335H8.88894V14.4446H7.77783V13.3335Z" fill="#263238"/>
<path d="M11.1111 13.3335H12.2222V14.4446H11.1111V13.3335Z" fill="#263238"/>
<path d="M14.4445 13.3335H15.5556V14.4446H14.4445V13.3335Z" fill="#263238"/>
<path d="M5.55556 5.55577C5.7029 5.55577 5.84421 5.49724 5.94839 5.39305C6.05258 5.28887 6.11111 5.14756 6.11111 5.00022V1.66688C6.11111 1.51954 6.05258 1.37823 5.94839 1.27405C5.84421 1.16986 5.7029 1.11133 5.55556 1.11133C5.40821 1.11133 5.26691 1.16986 5.16272 1.27405C5.05853 1.37823 5 1.51954 5 1.66688V5.00022C5 5.14756 5.05853 5.28887 5.16272 5.39305C5.26691 5.49724 5.40821 5.55577 5.55556 5.55577Z" fill="#263238"/>
<path d="M14.4445 5.55577C14.5918 5.55577 14.7331 5.49724 14.8373 5.39305C14.9415 5.28887 15 5.14756 15 5.00022V1.66688C15 1.51954 14.9415 1.37823 14.8373 1.27405C14.7331 1.16986 14.5918 1.11133 14.4445 1.11133C14.2971 1.11133 14.1558 1.16986 14.0516 1.27405C13.9474 1.37823 13.8889 1.51954 13.8889 1.66688V5.00022C13.8889 5.14756 13.9474 5.28887 14.0516 5.39305C14.1558 5.49724 14.2971 5.55577 14.4445 5.55577Z" fill="#263238"/>
<path d="M7.22217 3.3335H12.7777V4.44461H7.22217V3.3335Z" fill="#263238"/>
</g>
<defs>
<clipPath id="clip0_424_4247">
<rect width="20" height="20" fill="white"/>
</clipPath>
</defs>
</svg>
