<svg width="14" height="16" viewBox="0 0 14 16" fill="none" xmlns="http://www.w3.org/2000/svg">
<path d="M2.61601 16C2.17134 16 1.79101 15.8416 1.47501 15.525C1.15901 15.2083 1.00067 14.8286 1.00001 14.386V1.99998H0.500007C0.358007 1.99998 0.23934 1.95198 0.144007 1.85598C0.0486736 1.75998 0.000673516 1.64098 6.84931e-06 1.49898C-0.000659817 1.35698 0.0473402 1.23831 0.144007 1.14298C0.240674 1.04765 0.35934 0.99998 0.500007 0.99998H4.00001C4.00001 0.793314 4.07667 0.613314 4.23001 0.45998C4.38334 0.306647 4.56334 0.22998 4.77001 0.22998H9.23001C9.43667 0.22998 9.61667 0.306647 9.77001 0.45998C9.92334 0.613314 10 0.793314 10 0.99998H13.5C13.642 0.99998 13.7607 1.04798 13.856 1.14398C13.9513 1.23998 13.9993 1.35898 14 1.50098C14.0007 1.64298 13.9527 1.76165 13.856 1.85698C13.7593 1.95231 13.6407 1.99998 13.5 1.99998H13V14.385C13 14.829 12.8417 15.209 12.525 15.525C12.2083 15.841 11.8283 15.9993 11.385 16H2.61601ZM12 1.99998H2.00001V14.385C2.00001 14.5643 2.05767 14.7116 2.17301 14.827C2.28834 14.9423 2.43601 15 2.61601 15H11.385C11.5643 15 11.7117 14.9423 11.827 14.827C11.9423 14.7116 12 14.5643 12 14.385V1.99998ZM5.30801 13C5.45001 13 5.56901 12.952 5.66501 12.856C5.76101 12.76 5.80867 12.6413 5.80801 12.5V4.49998C5.80801 4.35798 5.76001 4.23931 5.66401 4.14398C5.56801 4.04865 5.44901 4.00065 5.30701 3.99998C5.16501 3.99931 5.04634 4.04731 4.95101 4.14398C4.85567 4.24065 4.80801 4.35931 4.80801 4.49998V12.5C4.80801 12.642 4.85601 12.7606 4.95201 12.856C5.04801 12.952 5.16667 13 5.30801 13ZM8.69301 13C8.83501 13 8.95367 12.952 9.04901 12.856C9.14434 12.76 9.19201 12.6413 9.19201 12.5V4.49998C9.19201 4.35798 9.14401 4.23931 9.04801 4.14398C8.95201 4.04798 8.83334 3.99998 8.69201 3.99998C8.55001 3.99998 8.43101 4.04798 8.33501 4.14398C8.23901 4.23998 8.19134 4.35865 8.19201 4.49998V12.5C8.19201 12.642 8.24001 12.7606 8.33601 12.856C8.43201 12.9513 8.55101 12.9993 8.69301 13Z" fill="#B3261E"/>
</svg>
