<svg width="103" height="103" viewBox="0 0 103 103" fill="none" xmlns="http://www.w3.org/2000/svg">
<g clip-path="url(#clip0_72_148)">
<path d="M92.4998 17.1669C92.1098 17.1267 91.7167 17.1267 91.3267 17.1669H11.2156C10.7022 17.1748 10.1921 17.2518 9.69922 17.3957L51.0423 58.5671L92.4998 17.1669Z" fill="white"/>
<path d="M96.7342 21.1436L55.0764 62.6297C54.0043 63.6954 52.554 64.2936 51.0422 64.2936C49.5305 64.2936 48.0802 63.6954 47.0081 62.6297L5.72225 21.4583C5.59533 21.9248 5.52803 22.4054 5.52197 22.8888V80.1111C5.52197 81.6287 6.12485 83.0841 7.19797 84.1573C8.2711 85.2304 9.72657 85.8333 11.2442 85.8333H91.3553C92.8729 85.8333 94.3284 85.2304 95.4015 84.1573C96.4747 83.0841 97.0775 81.6287 97.0775 80.1111V22.8888C97.0547 22.2927 96.9389 21.7039 96.7342 21.1436ZM15.1639 80.1111H11.187V76.0197L31.9872 55.3911L36.0214 59.4252L15.1639 80.1111ZM91.2981 80.1111H87.2925L66.435 59.4252L70.4692 55.3911L91.2695 76.0197L91.2981 80.1111Z" fill="white"/>
</g>
<defs>
<clipPath id="clip0_72_148">
<rect width="103" height="103" fill="white"/>
</clipPath>
</defs>
</svg>
