<svg width="40" height="40" viewBox="0 0 40 40" fill="none" xmlns="http://www.w3.org/2000/svg">
<path d="M20.0002 14.5833C18.5636 14.5833 17.1858 15.154 16.17 16.1698C15.1542 17.1857 14.5835 18.5634 14.5835 20C14.5835 21.4366 15.1542 22.8143 16.17 23.8302C17.1858 24.846 18.5636 25.4167 20.0002 25.4167C21.4368 25.4167 22.8145 24.846 23.8303 23.8302C24.8461 22.8143 25.4168 21.4366 25.4168 20C25.4168 18.5634 24.8461 17.1857 23.8303 16.1698C22.8145 15.154 21.4368 14.5833 20.0002 14.5833Z" fill="#5A4A3F"/>
<path fill-rule="evenodd" clip-rule="evenodd" d="M11.2835 5.13667C17.0769 4.49489 22.9235 4.49489 28.7169 5.13667C31.8819 5.49001 34.4335 7.98167 34.8052 11.1583C35.4918 17.0328 35.4918 22.9672 34.8052 28.8417C34.4335 32.0183 31.8819 34.51 28.7185 34.865C22.9246 35.5069 17.0775 35.5069 11.2835 34.865C8.11853 34.51 5.56686 32.0183 5.1952 28.8433C4.5085 22.9683 4.5085 17.0333 5.1952 11.1583C5.56686 7.98167 8.11853 5.49001 11.2835 5.13667ZM28.3335 10C27.8915 10 27.4676 10.1756 27.155 10.4882C26.8425 10.8007 26.6669 11.2246 26.6669 11.6667C26.6669 12.1087 26.8425 12.5326 27.155 12.8452C27.4676 13.1577 27.8915 13.3333 28.3335 13.3333C28.7756 13.3333 29.1995 13.1577 29.512 12.8452C29.8246 12.5326 30.0002 12.1087 30.0002 11.6667C30.0002 11.2246 29.8246 10.8007 29.512 10.4882C29.1995 10.1756 28.7756 10 28.3335 10ZM12.0835 20C12.0835 17.9004 12.9176 15.8867 14.4023 14.4021C15.8869 12.9174 17.9006 12.0833 20.0002 12.0833C22.0998 12.0833 24.1135 12.9174 25.5981 14.4021C27.0828 15.8867 27.9169 17.9004 27.9169 20C27.9169 22.0996 27.0828 24.1133 25.5981 25.5979C24.1135 27.0826 22.0998 27.9167 20.0002 27.9167C17.9006 27.9167 15.8869 27.0826 14.4023 25.5979C12.9176 24.1133 12.0835 22.0996 12.0835 20Z" fill="#5A4A3F"/>
</svg>
