<svg width="103" height="103" viewBox="0 0 103 103" fill="none" xmlns="http://www.w3.org/2000/svg">
<path d="M51.4999 37.5522C47.8007 37.5522 44.253 39.0218 41.6373 41.6375C39.0215 44.2532 37.552 47.8009 37.552 51.5002C37.552 55.1994 39.0215 58.7471 41.6373 61.3628C44.253 63.9786 47.8007 65.4481 51.4999 65.4481C55.1991 65.4481 58.7468 63.9786 61.3626 61.3628C63.9783 58.7471 65.4478 55.1994 65.4478 51.5002C65.4478 47.8009 63.9783 44.2532 61.3626 41.6375C58.7468 39.0218 55.1991 37.5522 51.4999 37.5522Z" fill="white"/>
<path fill-rule="evenodd" clip-rule="evenodd" d="M29.0547 13.2268C43.9726 11.5742 59.0275 11.5742 73.9455 13.2268C82.0954 14.1366 88.6659 20.5526 89.6229 28.7325C91.3909 43.8593 91.3909 59.1404 89.6229 74.2671C88.6659 82.447 82.0954 88.8631 73.9498 89.7772C59.0304 91.4301 43.9741 91.4301 29.0547 89.7772C20.9048 88.8631 14.3342 82.447 13.3772 74.2714C11.609 59.1433 11.609 43.8607 13.3772 28.7325C14.3342 20.5526 20.9048 14.1366 29.0547 13.2268ZM72.9584 25.7498C71.8202 25.7498 70.7286 26.202 69.9237 27.0068C69.1189 27.8117 68.6667 28.9033 68.6667 30.0415C68.6667 31.1797 69.1189 32.2713 69.9237 33.0762C70.7286 33.881 71.8202 34.3332 72.9584 34.3332C74.0966 34.3332 75.1882 33.881 75.9931 33.0762C76.7979 32.2713 77.2501 31.1797 77.2501 30.0415C77.2501 28.9033 76.7979 27.8117 75.9931 27.0068C75.1882 26.202 74.0966 25.7498 72.9584 25.7498ZM31.1147 51.4998C31.1147 46.0933 33.2624 40.9082 37.0854 37.0852C40.9084 33.2622 46.0935 31.1144 51.5001 31.1144C56.9066 31.1144 62.0917 33.2622 65.9147 37.0852C69.7378 40.9082 71.8855 46.0933 71.8855 51.4998C71.8855 56.9064 69.7378 62.0915 65.9147 65.9145C62.0917 69.7375 56.9066 71.8853 51.5001 71.8853C46.0935 71.8853 40.9084 69.7375 37.0854 65.9145C33.2624 62.0915 31.1147 56.9064 31.1147 51.4998Z" fill="white"/>
</svg>
