<svg width="26" height="26" viewBox="0 0 26 26" fill="none" xmlns="http://www.w3.org/2000/svg">
<path d="M20.5834 9.75C20.5834 8.75415 20.3873 7.76804 20.0062 6.84799C19.6251 5.92794 19.0665 5.09196 18.3623 4.38778C17.6581 3.6836 16.8222 3.12502 15.9021 2.74392C14.982 2.36282 13.9959 2.16667 13.0001 2.16667C12.0042 2.16667 11.0181 2.36282 10.0981 2.74392C9.17801 3.12502 8.34203 3.6836 7.63786 4.38778C6.93368 5.09196 6.37509 5.92794 5.99399 6.84799C5.6129 7.76804 5.41675 8.75415 5.41675 9.75C5.41675 11.2526 5.85983 12.6501 6.61383 13.8288H6.60516L13.0001 23.8333L19.395 13.8288H19.3874C20.1684 12.6117 20.5835 11.1961 20.5834 9.75ZM13.0001 13C12.1381 13 11.3115 12.6576 10.702 12.0481C10.0925 11.4386 9.75008 10.612 9.75008 9.75C9.75008 8.88805 10.0925 8.0614 10.702 7.45191C11.3115 6.84241 12.1381 6.5 13.0001 6.5C13.862 6.5 14.6887 6.84241 15.2982 7.45191C15.9077 8.0614 16.2501 8.88805 16.2501 9.75C16.2501 10.612 15.9077 11.4386 15.2982 12.0481C14.6887 12.6576 13.862 13 13.0001 13Z" fill="black"/>
</svg>
