<svg width="26" height="26" viewBox="0 0 26 26" fill="none" xmlns="http://www.w3.org/2000/svg">
<path d="M20.5837 9.75C20.5837 8.75415 20.3875 7.76804 20.0064 6.84799C19.6253 5.92794 19.0667 5.09196 18.3626 4.38778C17.6584 3.6836 16.8224 3.12502 15.9023 2.74392C14.9823 2.36282 13.9962 2.16667 13.0003 2.16667C12.0045 2.16667 11.0184 2.36282 10.0983 2.74392C9.17826 3.12502 8.34228 3.6836 7.6381 4.38778C6.93392 5.09196 6.37534 5.92794 5.99424 6.84799C5.61314 7.76804 5.41699 8.75415 5.41699 9.75C5.41699 11.2526 5.86008 12.6501 6.61408 13.8288H6.60541L13.0003 23.8333L19.3952 13.8288H19.3877C20.1687 12.6117 20.5838 11.1961 20.5837 9.75ZM13.0003 13C12.1384 13 11.3117 12.6576 10.7022 12.0481C10.0927 11.4386 9.75033 10.612 9.75033 9.75C9.75033 8.88805 10.0927 8.0614 10.7022 7.45191C11.3117 6.84241 12.1384 6.5 13.0003 6.5C13.8623 6.5 14.6889 6.84241 15.2984 7.45191C15.9079 8.0614 16.2503 8.88805 16.2503 9.75C16.2503 10.612 15.9079 11.4386 15.2984 12.0481C14.6889 12.6576 13.8623 13 13.0003 13Z" fill="white"/>
</svg>
