<svg width="24" height="24" viewBox="0 0 24 24" fill="none" xmlns="http://www.w3.org/2000/svg">
<g clip-path="url(#clip0_51_380)">
<path d="M16.874 6.10742H9.385C9.1907 6.10742 9.0332 6.26492 9.0332 6.45922C9.0332 6.65352 9.1907 6.81102 9.385 6.81102H16.8739C17.0682 6.81102 17.2258 6.65352 17.2258 6.45922C17.2258 6.26487 17.0683 6.10742 16.874 6.10742Z" fill="#4A8F7D"/>
<path d="M7.74896 6.10742H6.56274C6.36844 6.10742 6.21094 6.26492 6.21094 6.45922C6.21094 6.65352 6.36839 6.81102 6.56274 6.81102H7.74896C7.94325 6.81102 8.10075 6.65352 8.10075 6.45922C8.10075 6.26492 7.94325 6.10742 7.74896 6.10742Z" fill="#4A8F7D"/>
<path d="M10.2424 16.8906H6.56274C6.36844 16.8906 6.21094 17.0481 6.21094 17.2424C6.21094 17.4368 6.36844 17.5942 6.56274 17.5942H10.2424C10.4367 17.5942 10.5942 17.4367 10.5942 17.2424C10.5942 17.0481 10.4367 16.8906 10.2424 16.8906Z" fill="#4A8F7D"/>
<path d="M11.7188 13.2969H6.56274C6.36844 13.2969 6.21094 13.4544 6.21094 13.6487C6.21094 13.843 6.36844 14.0005 6.56274 14.0005H11.7188C11.9131 14.0005 12.0706 13.843 12.0706 13.6487C12.0706 13.4543 11.9131 13.2969 11.7188 13.2969Z" fill="#4A8F7D"/>
<path d="M14.2286 9.70215H6.56274C6.36844 9.70215 6.21094 9.85965 6.21094 10.0539C6.21094 10.2482 6.36844 10.4057 6.56274 10.4057H14.2286C14.4229 10.4058 14.5804 10.2483 14.5804 10.0539C14.5804 9.8596 14.4229 9.70215 14.2286 9.70215Z" fill="#4A8F7D"/>
<path d="M20.8859 2.50781H6.34662C5.05878 2.50781 4.01107 3.55556 4.01107 4.84341V18.6858H0.35177C0.257879 18.6858 0.167832 18.7234 0.101785 18.7901C0.0356913 18.8568 -0.000965051 18.9472 1.93259e-05 19.0411C0.0138944 20.438 1.01772 21.4913 2.33501 21.4913H16.8743H16.9186C18.2064 21.4913 19.2541 20.4435 19.2541 19.1557V14.8927C19.2541 14.6984 19.0966 14.541 18.9023 14.541C18.708 14.541 18.5505 14.6985 18.5505 14.8928V19.1557C18.5505 20.0556 17.8184 20.7877 16.9186 20.7877H16.8743C15.9541 20.7877 15.2528 20.0338 15.2429 19.0341C15.2409 18.8412 15.084 18.6858 14.8911 18.6858H4.71486V4.84336C4.71486 3.94346 5.44695 3.21141 6.34677 3.21141H19.2167C19.2064 3.22195 19.1966 3.23302 19.1865 3.2438C19.1742 3.25688 19.1618 3.26981 19.1498 3.28313C19.1371 3.29724 19.1249 3.31172 19.1125 3.32616C19.1007 3.33999 19.0887 3.35367 19.0772 3.36778C19.0652 3.38241 19.0538 3.39741 19.0422 3.41231C19.0309 3.42675 19.0196 3.44105 19.0087 3.45577C18.9975 3.47086 18.9868 3.48628 18.976 3.50166C18.9654 3.51675 18.9546 3.53175 18.9443 3.54708C18.9339 3.5626 18.924 3.57844 18.914 3.59424C18.904 3.60994 18.8939 3.6255 18.8843 3.64144C18.8747 3.65747 18.8656 3.67383 18.8563 3.6901C18.8471 3.70627 18.8376 3.72235 18.8288 3.7388C18.8199 3.75525 18.8116 3.77208 18.8031 3.78882C18.7946 3.8055 18.7859 3.82205 18.7779 3.83892C18.7697 3.85589 18.7623 3.87319 18.7546 3.89035C18.7469 3.90746 18.7389 3.92442 18.7317 3.94172C18.7243 3.95921 18.7177 3.97702 18.7107 3.99469C18.7039 4.01213 18.6968 4.02943 18.6904 4.04705C18.6838 4.06514 18.6779 4.08357 18.6718 4.10189C18.6659 4.11952 18.6596 4.13696 18.6541 4.15477C18.6483 4.17352 18.6433 4.1926 18.6379 4.21158C18.633 4.2293 18.6276 4.24688 18.623 4.26478C18.618 4.28447 18.6138 4.30444 18.6092 4.32432C18.6053 4.3418 18.6009 4.35919 18.5973 4.37682C18.5931 4.39749 18.5897 4.41839 18.5861 4.43925C18.5831 4.4565 18.5796 4.47357 18.577 4.49091C18.5736 4.51318 18.5712 4.53572 18.5684 4.55818C18.5664 4.57439 18.564 4.59043 18.5623 4.60674C18.5598 4.63186 18.5582 4.65727 18.5565 4.68263C18.5556 4.69655 18.5541 4.71038 18.5534 4.72435C18.5514 4.76377 18.5504 4.80347 18.5504 4.84341V4.96149V7.96585C18.5504 8.1602 18.7079 8.31765 18.9022 8.31765C19.0965 8.31765 19.254 8.16015 19.254 7.96585V5.31329H22.8729C22.9668 5.31329 23.0568 5.27574 23.1228 5.20904C23.1889 5.14229 23.2256 5.05191 23.2246 4.95802C23.2107 3.56114 22.2069 2.50781 20.8859 2.50781ZM14.5638 19.3895C14.5686 19.4259 14.5742 19.4619 14.5805 19.4977C14.5825 19.5097 14.5851 19.5215 14.5873 19.5335C14.5918 19.5571 14.5962 19.5808 14.6013 19.6041C14.6043 19.6182 14.6077 19.6319 14.6109 19.6458C14.6158 19.6669 14.6207 19.6879 14.6261 19.7087C14.6298 19.7233 14.6339 19.7377 14.6379 19.7521C14.6434 19.7719 14.6489 19.7916 14.6548 19.8112C14.6592 19.8259 14.6639 19.8404 14.6685 19.855C14.6746 19.874 14.681 19.8929 14.6875 19.9117C14.6925 19.9262 14.6976 19.9407 14.7029 19.955C14.7098 19.9737 14.7168 19.9921 14.7241 20.0105C14.7296 20.0245 14.7351 20.0384 14.7408 20.0523C14.7486 20.0709 14.7566 20.0893 14.7647 20.1076C14.7705 20.1208 14.7763 20.134 14.7824 20.147C14.7913 20.1663 14.8006 20.1852 14.81 20.2041C14.8158 20.2158 14.8214 20.2276 14.8274 20.2393C14.8388 20.2614 14.8508 20.2832 14.8628 20.305C14.8672 20.3129 14.8713 20.321 14.8758 20.3288C14.8925 20.3582 14.9098 20.3872 14.9277 20.4157C14.9318 20.4223 14.9363 20.4287 14.9405 20.4353C14.9544 20.4571 14.9685 20.4788 14.9831 20.5C14.9899 20.5098 14.9969 20.5193 15.0038 20.529C15.0163 20.5468 15.0289 20.5644 15.0419 20.5817C15.0497 20.5921 15.0578 20.6023 15.0657 20.6125C15.0783 20.6287 15.0909 20.6448 15.1039 20.6606C15.1124 20.6709 15.1211 20.6811 15.1298 20.6914C15.1427 20.7066 15.1558 20.7217 15.1691 20.7366C15.1781 20.7467 15.1872 20.7566 15.1963 20.7664C15.2028 20.7734 15.2091 20.7808 15.2157 20.7877H2.33496C1.52758 20.7877 0.88863 20.2071 0.737458 19.3895H14.5638ZM19.2713 4.6096C19.2714 4.60721 19.2717 4.60472 19.272 4.60229C19.2736 4.59155 19.2756 4.58091 19.2774 4.57027C19.2799 4.55527 19.2825 4.54027 19.2855 4.52536C19.2877 4.51402 19.2902 4.50277 19.2927 4.49152C19.2958 4.47755 19.299 4.46363 19.3024 4.4498C19.3053 4.43818 19.3084 4.4266 19.3115 4.41507C19.3151 4.40189 19.3188 4.38872 19.3227 4.37569C19.3262 4.36388 19.3299 4.35216 19.3337 4.34049C19.3378 4.32802 19.342 4.31564 19.3464 4.30327C19.3506 4.29132 19.3548 4.27936 19.3593 4.26755C19.3637 4.25588 19.3684 4.24435 19.3731 4.23277C19.378 4.22058 19.3829 4.20844 19.3882 4.19639C19.3928 4.18566 19.3977 4.17507 19.4026 4.16447C19.4084 4.15196 19.4141 4.13935 19.4201 4.12702C19.4246 4.11783 19.4295 4.10883 19.4342 4.09974C19.4411 4.08624 19.4479 4.07274 19.4552 4.05947C19.4581 4.05432 19.4612 4.04935 19.464 4.04424C19.4965 3.98672 19.5322 3.93122 19.5712 3.8783C19.5715 3.87778 19.5719 3.87732 19.5722 3.8768C19.5848 3.85983 19.5978 3.84319 19.611 3.82669C19.6131 3.82407 19.6151 3.82139 19.6172 3.81877C19.6301 3.80283 19.6434 3.78722 19.6569 3.7718C19.6593 3.76894 19.6618 3.76603 19.6644 3.76317C19.678 3.74771 19.6921 3.73257 19.7064 3.71761C19.7087 3.71517 19.711 3.71269 19.7134 3.71025C19.7282 3.69497 19.7433 3.67992 19.7587 3.66521C19.7604 3.66356 19.7621 3.66192 19.7639 3.66024C19.7801 3.64486 19.7966 3.62977 19.8135 3.61505C19.814 3.61453 19.8146 3.61406 19.8152 3.61355C20.0306 3.42591 20.2958 3.29358 20.5884 3.23911C20.5885 3.23906 20.5887 3.23906 20.5888 3.23902C20.6128 3.23456 20.637 3.23063 20.6613 3.22725C20.6627 3.22706 20.6642 3.22688 20.6657 3.22669C20.6889 3.2235 20.7122 3.22078 20.7357 3.21858C20.7392 3.21825 20.7429 3.21806 20.7465 3.21778C20.768 3.21591 20.7895 3.21431 20.8113 3.21328C20.8239 3.21272 20.8365 3.21263 20.8492 3.2123C20.8628 3.21197 20.8763 3.21136 20.89 3.21136C21.6974 3.21136 22.3363 3.79191 22.4875 4.6096H19.2713Z" fill="#4A8F7D" stroke="#4A8F7D" stroke-width="0.3"/>
<path d="M23.9993 8.992C23.9993 8.98793 23.9992 8.98385 23.9991 8.97972C23.9977 8.94663 23.9917 8.91475 23.9817 8.88457C23.9813 8.88307 23.9811 8.88152 23.9806 8.88007C23.9801 8.87885 23.9794 8.87772 23.979 8.8765C23.9735 8.86108 23.9671 8.84608 23.9596 8.83174C23.9587 8.82996 23.9576 8.82832 23.9566 8.82654C23.9497 8.81388 23.942 8.80174 23.9336 8.79007C23.9318 8.78758 23.9302 8.785 23.9283 8.78257C23.9191 8.77038 23.9091 8.75885 23.8983 8.74797C23.896 8.74558 23.8935 8.74338 23.8911 8.74108C23.881 8.73133 23.8703 8.72219 23.8591 8.71371C23.8576 8.71258 23.8561 8.71132 23.8546 8.71019C23.8419 8.701 23.8285 8.6928 23.8147 8.6853C23.812 8.68385 23.8094 8.68254 23.8066 8.68118C23.7925 8.67405 23.7781 8.66754 23.763 8.66233C23.7629 8.66229 23.7628 8.66224 23.7627 8.66224C23.7476 8.65708 23.732 8.65319 23.7161 8.65005C23.7126 8.64935 23.7091 8.64874 23.7055 8.64818C23.6896 8.64555 23.6735 8.64358 23.657 8.64316C20.7133 8.56699 16.8749 9.2756 14.9343 11.4909C14.085 12.4604 13.6932 13.6904 13.3142 14.8799C13.2832 14.9773 13.2522 15.0746 13.2209 15.1717C13.2196 15.1758 13.2184 15.1799 13.2172 15.1841L12.6226 17.2958C12.57 17.4828 12.6789 17.6771 12.8659 17.7298C12.8978 17.7388 12.9299 17.743 12.9614 17.743C13.115 17.743 13.2562 17.6416 13.2999 17.4864L13.8514 15.5279C14.5255 15.212 15.0683 15.0642 15.8015 14.8648C16.1818 14.7613 16.613 14.6442 17.1346 14.4837C18.2624 14.1368 20.426 12.6856 21.4217 11.6081C22.2926 10.6656 23.0254 9.96518 23.8719 9.26613C23.8729 9.26533 23.8737 9.26435 23.8747 9.26351C23.887 9.25305 23.8987 9.24194 23.9095 9.2299C23.9101 9.22915 23.9108 9.22849 23.9115 9.22779C23.9221 9.21574 23.9318 9.2028 23.9408 9.1893C23.9424 9.18682 23.944 9.18433 23.9456 9.1818C23.9625 9.15494 23.9758 9.12574 23.985 9.09461C23.9858 9.09166 23.9867 9.08875 23.9875 9.08575C23.9916 9.07047 23.9949 9.05491 23.997 9.03888C23.9971 9.03822 23.9971 9.03761 23.9971 9.03696C23.9984 9.02608 23.9993 9.01507 23.9996 9.00391C23.9998 8.99988 23.9994 8.99594 23.9993 8.992ZM15.4636 11.9545C16.2825 11.0197 17.5376 10.315 19.194 9.86013C19.6392 9.73788 20.1097 9.63644 20.5945 9.55638C19.3626 10.1538 18.1846 10.9021 17.5264 11.3418C16.464 12.0515 15.3173 12.9124 14.4704 13.678C14.721 13.0432 15.024 12.4564 15.4636 11.9545ZM20.905 11.1305C19.9359 12.1792 17.8429 13.5297 16.9278 13.8111C16.4172 13.9681 15.992 14.0838 15.6169 14.1858C15.2774 14.2781 14.9687 14.3622 14.6633 14.4591C14.7999 14.3283 14.96 14.1816 15.1488 14.017C15.9085 13.3543 16.8916 12.6121 17.9172 11.9269C19.6929 10.7407 21.2999 9.90799 22.4789 9.54701C21.9668 10.0186 21.4632 10.5263 20.905 11.1305Z" fill="#4A8F7D"/>
</g>
<defs>
<clipPath id="clip0_51_380">
<rect width="24" height="24" fill="white"/>
</clipPath>
</defs>
</svg>
