<svg width="24" height="24" viewBox="0 0 24 24" fill="none" xmlns="http://www.w3.org/2000/svg">
<g clip-path="url(#clip0_51_367)">
<path d="M10.5469 12.75H7.26562C3.25931 12.75 0 16.0094 0 20.0156V23.2969C0 23.6852 0.314812 24 0.703125 24H3.98438C7.99069 24 11.25 20.7406 11.25 16.7344V13.4531C11.25 13.0648 10.9352 12.75 10.5469 12.75ZM9.84375 16.7344C9.84375 19.9652 7.21523 22.5938 3.98438 22.5938H1.40625V20.0156C1.40625 16.7848 4.03477 14.1562 7.26562 14.1562H9.84375V16.7344Z" fill="#4A8F7D"/>
<path d="M23.2969 0H20.0156C16.0093 0 12.75 3.25936 12.75 7.26562V10.5469C12.75 10.9352 13.0648 11.25 13.4531 11.25H16.7344C20.7407 11.25 24 7.99064 24 3.98438V0.703125C24 0.314812 23.6852 0 23.2969 0ZM22.5938 3.98438C22.5938 7.21523 19.9652 9.84375 16.7344 9.84375H14.1562V7.26562C14.1562 4.03477 16.7848 1.40625 20.0156 1.40625H22.5938V3.98438Z" fill="#4A8F7D"/>
<path d="M16.7344 12.75H13.4531C13.0648 12.75 12.75 13.0648 12.75 13.4531V16.7344C12.75 20.7406 16.0093 24 20.0156 24H23.2969C23.6852 24 24 23.6852 24 23.2969V20.0156C24 16.0094 20.7407 12.75 16.7344 12.75ZM22.5938 22.5938H20.0156C16.7848 22.5938 14.1562 19.9652 14.1562 16.7344V14.1562H16.7344C19.9652 14.1562 22.5938 16.7848 22.5938 20.0156V22.5938Z" fill="#4A8F7D"/>
<path d="M3.98438 0H0.703125C0.314812 0 0 0.314812 0 0.703125V3.98438C0 7.99064 3.25931 11.25 7.26562 11.25H10.5469C10.9352 11.25 11.25 10.9352 11.25 10.5469V7.26562C11.25 3.25936 7.99069 0 3.98438 0ZM9.84375 9.84375H7.26562C4.03477 9.84375 1.40625 7.21523 1.40625 3.98438V1.40625H3.98438C7.21523 1.40625 9.84375 4.03477 9.84375 7.26562V9.84375Z" fill="#4A8F7D"/>
</g>
<defs>
<clipPath id="clip0_51_367">
<rect width="24" height="24" fill="white"/>
</clipPath>
</defs>
</svg>
