<svg width="57" height="68" viewBox="0 0 57 68" fill="none" xmlns="http://www.w3.org/2000/svg">
<path fill-rule="evenodd" clip-rule="evenodd" d="M26.4953 17.8338C32.5573 13.1738 34.0606 3.19412 41.2586 0.634403C46.6565 -1.28516 57.1432 1.24224 56.9985 6.9865C56.7704 16.0456 41.8093 19.1958 40.5651 28.1714C39.8536 33.3036 54.0881 32.4002 52.7805 37.413C51.4488 42.5183 40.2349 35.6803 37.4402 40.151C34.1234 45.457 41.8503 52.7636 39.5461 58.5845C37.5575 63.6079 31.7172 69.1274 26.4953 67.7996C20.5359 66.2844 20.8888 56.7557 16.2834 52.6696C13.2371 49.9667 4.7834 52.7347 4.91989 48.6569C5.13775 42.1484 18.255 39.9591 16.9222 33.5858C15.6208 27.3622 1.04482 31.6149 0.0431406 25.3358C-0.777377 20.1922 10.3204 24.2763 15.1206 22.2921C17.2486 21.4125 17.5462 18.0551 19.69 17.2148C21.8385 16.3727 24.6642 19.2414 26.4953 17.8338Z" fill="#C5A46D" fill-opacity="0.18"/>
</svg>
