<svg width="20" height="20" viewBox="0 0 20 20" fill="none" xmlns="http://www.w3.org/2000/svg">
<path fill-rule="evenodd" clip-rule="evenodd" d="M10.6 9.503L14.491 13.394L13.643 14.243L9.4 10V4H10.6V9.503ZM10 20C4.477 20 0 15.523 0 10C0 4.477 4.477 0 10 0C15.523 0 20 4.477 20 10C20 15.523 15.523 20 10 20ZM10 18.8C12.3339 18.8 14.5722 17.8729 16.2225 16.2225C17.8729 14.5722 18.8 12.3339 18.8 10C18.8 7.66609 17.8729 5.42778 16.2225 3.77746C14.5722 2.12714 12.3339 1.2 10 1.2C7.66609 1.2 5.42778 2.12714 3.77746 3.77746C2.12714 5.42778 1.2 7.66609 1.2 10C1.2 12.3339 2.12714 14.5722 3.77746 16.2225C5.42778 17.8729 7.66609 18.8 10 18.8Z" fill="#263238"/>
</svg>
