<svg width="20" height="20" viewBox="0 0 20 20" fill="none" xmlns="http://www.w3.org/2000/svg">
<path d="M6.15415 5.51264C6.15415 4.75195 6.37973 4.00834 6.80235 3.37584C7.22496 2.74335 7.82565 2.25038 8.52844 1.95928C9.23123 1.66817 10.0046 1.592 10.7506 1.74041C11.4967 1.88881 12.182 2.25512 12.7199 2.79301C13.2578 3.33091 13.6241 4.01622 13.7725 4.7623C13.9209 5.50838 13.8448 6.28171 13.5537 6.9845C13.2626 7.68729 12.7696 8.28797 12.1371 8.71059C11.5046 9.13321 10.761 9.35878 10.0003 9.35878C8.98023 9.35878 8.00195 8.95356 7.28066 8.23227C6.55937 7.51098 6.15415 6.5327 6.15415 5.51264ZM16.4105 18.3331H3.59006C3.08003 18.3331 2.59089 18.1305 2.23025 17.7698C1.8696 17.4092 1.66699 16.9201 1.66699 16.41C1.66699 14.8799 2.27482 13.4125 3.35675 12.3306C4.43869 11.2487 5.90611 10.6408 7.4362 10.6408H12.5644C14.0945 10.6408 15.5619 11.2487 16.6438 12.3306C17.7258 13.4125 18.3336 14.8799 18.3336 16.41C18.3336 16.9201 18.131 17.4092 17.7703 17.7698C17.4097 18.1305 16.9206 18.3331 16.4105 18.3331Z" fill="#BDC3C6"/>
</svg>
